<?xml version="1.0" encoding="UTF-8" standalone="no"?>
<!-- Created with Inkscape (http://www.inkscape.org/) -->

<svg
   width="128"
   height="128"
   viewBox="0 0 33.866666 33.866666"
   version="1.1"
   id="svg1"
   xml:space="preserve"
   inkscape:version="1.4 (86a8ad7, 2024-10-11)"
   sodipodi:docname="icon.svg"
   xmlns:inkscape="http://www.inkscape.org/namespaces/inkscape"
   xmlns:sodipodi="http://sodipodi.sourceforge.net/DTD/sodipodi-0.dtd"
   xmlns="http://www.w3.org/2000/svg"
   xmlns:svg="http://www.w3.org/2000/svg"><sodipodi:namedview
     id="namedview1"
     pagecolor="#ffffff"
     bordercolor="#000000"
     borderopacity="0.25"
     inkscape:showpageshadow="2"
     inkscape:pageopacity="0.0"
     inkscape:pagecheckerboard="0"
     inkscape:deskcolor="#d1d1d1"
     inkscape:document-units="mm"
     inkscape:zoom="2.5600281"
     inkscape:cx="55.07752"
     inkscape:cy="91.405247"
     inkscape:window-width="1920"
     inkscape:window-height="1010"
     inkscape:window-x="2553"
     inkscape:window-y="-6"
     inkscape:window-maximized="1"
     inkscape:current-layer="layer1" /><defs
     id="defs1" /><g
     inkscape:label="Layer 1"
     inkscape:groupmode="layer"
     id="layer1"><path
       id="rect1"
       style="fill:#ffffff;stroke:#b04345;stroke-width:2.11666667;stroke-linejoin:round;stroke-dasharray:none;stroke-opacity:1"
       d="m 2.3313884,5.8925451 c 9.9342486,-0.6896821 14.8427966,2.528835 14.8427966,2.528835 0,0 5.635443,-2.988623 14.600495,-2.528835 V 26.742224 c 0,0 -7.81613,-1.379365 -14.600495,2.75873 -6.057469,-4.36799 -14.8427966,-2.75873 -14.8427966,-2.75873 z"
       sodipodi:nodetypes="ccccccc" /><g
       stroke-width="9.92746"
       transform="matrix(0.01181012,0,0,0.01181012,17.431437,9.6405613)"
       id="g10"><path
         d="m 981.39608,817.18857 c 0,0 -1.5272,-9.36993 -2.42,-9.28535 l -170.02155,16.40443 c -13.5286,1.30634 -24.03571,12.09539 -24.98492,25.65219 l -4.67087,66.94757 -131.5362,9.38403 -8.94702,-60.67432 c -1.9924,-13.49571 -13.77765,-23.66918 -27.41904,-23.66918 H 431.94862 c -13.63668,0 -25.42193,10.17347 -27.41434,23.66918 l -8.95171,60.67432 -131.53621,-9.38403 -4.67087,-66.94757 c -0.94921,-13.5615 -11.45631,-24.35055 -24.98492,-25.65689 L 64.284449,807.90322 c -0.87872,-0.0846 -1.5225,9.29475 -2.40122,9.29475 l -0.23026,36.79367 144.063911,23.23217 4.71786,67.54435 c 0.95391,13.67428 11.98731,24.73117 25.67099,25.71328 l 181.15362,12.92242 c 0.68606,0.047 1.36273,0.0752 2.03939,0.0752 13.61319,0 25.37965,-10.17817 27.37205,-23.67389 l 9.20547,-62.43176 h 131.59729 l 9.20546,62.43176 c 1.98771,13.49102 13.76826,23.66919 27.40025,23.66919 0.66726,0 1.33453,-0.0235 1.9877,-0.0705 l 181.17712,-12.92242 c 13.67897,-0.98211 24.71707,-12.039 25.67098,-25.71328 l 4.71316,-67.54435 144.00286,-23.33555 z"
         fill="#ffffff"
         id="path3"
         style="stroke-width:46.6498" /><path
         d="m 61.881029,539.75093 v 223.27133 28.35885 25.80726 c 0.5075,0.005 1.015,0.0235 1.5178,0.0705 L 233.48615,833.6586 c 8.90942,0.85993 15.89223,8.0307 16.51251,16.95893 l 5.24416,75.08164 148.36825,10.58699 10.22046,-69.2971 c 1.32514,-8.98461 9.0316,-15.64318 18.11959,-15.64318 h 179.44786 c 9.08329,0 16.78976,6.65857 18.11489,15.64318 l 10.22047,69.2971 148.37295,-10.58699 5.23945,-75.08164 c 0.62498,-8.92823 7.60309,-16.0943 16.51251,-16.95893 l 170.02153,-16.39973 c 0.5028,-0.047 1.0056,-0.0658 1.5131,-0.0705 v -22.13729 l 0.071,-0.0235 V 539.75093 c 23.95072,-30.15141 46.62992,-63.41015 64.00592,-91.3921 -26.5544,-45.20499 -59.09072,-85.60285 -93.86852,-123.03089 -32.25433,16.23526 -63.58299,34.6274 -93.173,54.199 -14.80675,-14.71747 -31.48373,-26.75647 -47.86467,-39.34056 -16.09429,-12.92713 -34.23268,-22.40514 -51.43595,-33.44794 5.12198,-38.1423 7.65477,-75.69253 8.67447,-114.88272 -44.38736,-22.33935 -91.72103,-37.1508 -139.5998,-47.78949 -19.11579,32.12751 -36.59631,66.91938 -51.82128,100.93121 -18.0538,-3.0168 -36.19219,-4.13518 -54.35407,-4.35134 v -0.0282 c -0.12687,0 -0.24435,0.0282 -0.35243,0.0282 -0.11278,0 -0.23025,-0.0282 -0.34303,-0.0282 v 0.0282 c -18.19478,0.21616 -36.31907,1.33454 -54.37757,4.35134 -15.21557,-34.01183 -32.68669,-68.8037 -51.83068,-100.93121 -47.85527,10.63869 -95.19364,25.45014 -139.5763,47.78949 1.015,39.19019 3.5478,76.74042 8.68387,114.88272 -17.23616,11.0428 -35.35106,20.52081 -51.45005,33.44794 -16.35744,12.58409 -33.06262,24.62309 -47.87407,39.34056 -29.59,-19.5716 -60.90926,-37.96374 -93.173041,-54.199 -34.77777,37.42804 -67.295295,77.8259 -93.8591041,123.03089 20.8763341,32.76983 43.2688421,65.70649 64.0059541,91.3921 z"
         fill="#478cbf"
         id="path4"
         style="fill:#800000;stroke-width:46.6498" /><path
         d="m 828.80713,868.63247 -5.26765,75.48107 c -0.63438,9.09739 -7.87094,16.33864 -16.96833,16.99181 l -181.17241,12.92713 c -0.44171,0.0329 -0.88343,0.047 -1.32044,0.047 -9.00341,0 -16.77096,-6.60688 -18.10079,-15.64788 L 595.58788,887.97382 H 447.76002 l -10.38963,70.45777 c -1.39562,9.48271 -9.87274,16.30105 -19.42123,15.60089 L 236.77674,961.10535 c -9.09739,-0.65317 -16.33395,-7.89442 -16.96832,-16.99181 L 214.54077,868.63247 61.600329,853.88681 c 0.0705,16.43733 0.28194,34.44414 0.28194,38.02952 0,161.52567 204.902691,239.16357 459.479191,240.05637 h 0.31014 0.31484 c 254.57649,-0.8928 459.40874,-78.5307 459.40874,-240.05637 0,-3.65117 0.2208,-21.5828 0.296,-38.02952 z"
         fill="#478cbf"
         id="path5"
         style="fill:#800000;stroke-width:46.6498" /><path
         d="m 383.0637,652.37201 c 0,56.63312 -45.88636,102.51009 -102.50068,102.51009 -56.58613,0 -102.48659,-45.87697 -102.48659,-102.51009 0,-56.59552 45.90046,-102.44899 102.48659,-102.44899 56.61432,0 102.50068,45.85347 102.50068,102.44899"
         fill="#ffffff"
         id="path6"
         style="stroke-width:46.6498" /><path
         d="m 358.40008,658.45185 c 0,37.56432 -30.44523,68.00955 -68.03775,68.00955 -37.57371,0 -68.03774,-30.44523 -68.03774,-68.00955 0,-37.56432 30.46403,-68.03775 68.03774,-68.03775 37.59252,0 68.03775,30.47343 68.03775,68.03775"
         fill="#414042"
         id="path7"
         style="fill:#800000;stroke-width:46.6498" /><path
         d="m 521.66521,764.20789 c -18.22297,0 -32.99213,-13.42993 -32.99213,-29.98473 v -94.36191 c 0,-16.5407 14.76916,-29.98473 32.99213,-29.98473 18.22297,0 33.02502,13.44403 33.02502,29.98473 v 94.36191 c 0,16.5548 -14.80205,29.98473 -33.02502,29.98473"
         fill="#ffffff"
         id="path8"
         style="stroke-width:46.6498" /><path
         d="m 660.28384,652.37201 c 0,56.63312 45.88636,102.51009 102.51009,102.51009 56.58143,0 102.47719,-45.87697 102.47719,-102.51009 0,-56.59552 -45.89576,-102.44899 -102.47719,-102.44899 -56.62373,0 -102.51009,45.85347 -102.51009,102.44899"
         fill="#ffffff"
         id="path9"
         style="stroke-width:46.6498" /><path
         d="m 684.9537,658.45185 c 0,37.56432 30.43583,68.00955 68.00015,68.00955 37.60191,0 68.03775,-30.44523 68.03775,-68.00955 0,-37.56432 -30.43584,-68.03775 -68.03775,-68.03775 -37.56432,0 -68.00015,30.47343 -68.00015,68.03775"
         fill="#414042"
         id="path10"
         style="fill:#800000;stroke-width:46.6498" /></g><path
       id="path2"
       style="fill:#800000;stroke:#ffffff;stroke-width:2.48682;stroke-linejoin:round;stroke-dasharray:none"
       inkscape:transform-center-x="-0.24283584"
       inkscape:transform-center-y="-1.2925372"
       d="M 16.876983,6.2346733 8.9645501,14.230517 1.7625902,6.0468297 4.5046522,1.9846452 13.845859,2.1007397 Z"
       sodipodi:nodetypes="cccccc" /><g
       id="g13"
       transform="translate(0.04800337,0.48648762)"><rect
         style="fill:#b04345;fill-opacity:1;stroke:none;stroke-width:0.964733;stroke-linejoin:round;stroke-dasharray:none;stroke-opacity:1"
         id="rect13"
         width="5.8348913"
         height="1.3521364"
         x="4.6821322"
         y="14.574569" /><rect
         style="fill:#b04345;fill-opacity:1;stroke:none;stroke-width:0.964733;stroke-linejoin:round;stroke-dasharray:none;stroke-opacity:1"
         id="rect13-6"
         width="5.8348913"
         height="1.3521364"
         x="6.6762729"
         y="16.742449" /><rect
         style="fill:#b04345;fill-opacity:1;stroke:none;stroke-width:0.759805;stroke-linejoin:round;stroke-dasharray:none;stroke-opacity:1"
         id="rect13-6-3"
         width="3.6192889"
         height="1.3521364"
         x="6.615952"
         y="18.795692" /><rect
         style="fill:#b04345;fill-opacity:1;stroke:none;stroke-width:0.759805;stroke-linejoin:round;stroke-dasharray:none;stroke-opacity:1"
         id="rect13-6-3-6"
         width="3.6192889"
         height="1.3521364"
         x="11.41296"
         y="18.875793" /><rect
         style="fill:#b04345;fill-opacity:1;stroke:none;stroke-width:0.759805;stroke-linejoin:round;stroke-dasharray:none;stroke-opacity:1"
         id="rect13-6-3-6-6"
         width="3.6192889"
         height="1.3521364"
         x="4.9396653"
         y="21.027027" /><rect
         style="fill:#b04345;fill-opacity:1;stroke:none;stroke-width:0.60561;stroke-linejoin:round;stroke-dasharray:none;stroke-opacity:1"
         id="rect13-1"
         width="2.2993557"
         height="1.3521364"
         x="11.573299"
         y="14.532638" /></g></g></svg>
